inDegrees=yes
name=ik_lifting_orientations
DataType=double
version=3
OpenSimVersion=4.5-2024-01-10-34fd6af
endheader
time	pelvis_tilt	pelvis_list	pelvis_rotation	pelvis_tx	pelvis_ty	pelvis_tz	hip_flexion_r	hip_adduction_r	hip_rotation_r	knee_angle_r	knee_angle_r_beta	ankle_angle_r	subtalar_angle_r	mtp_angle_r	hip_flexion_l	hip_adduction_l	hip_rotation_l	knee_angle_l	knee_angle_l_beta	ankle_angle_l	subtalar_angle_l	mtp_angle_l	lumbar_extension	lumbar_bending	lumbar_rotation	arm_flex_r	arm_add_r	arm_rot_r	elbow_flex_r	pro_sup_r	wrist_flex_r	wrist_dev_r	arm_flex_l	arm_add_l	arm_rot_l	elbow_flex_l	pro_sup_l	wrist_flex_l	wrist_dev_l
0.02	0.006764404631433256	-0.002130748135130968	-89.88294522993854	0	0.9399999998679526	0	44.778514575402	-11.2577019433842	0	59.67626478872177	1.041547305855153	-5.596038774361478	0	0	44.778514575402	-11.2577019433842	0	59.67626478872177	1.041547305855153	-5.596038774361478	0	0	0.0005411252207461324	-0.009542070800375243	-0.01290538549605372	-0.2454900161280957	-0.05228701268283741	0.004027748753254993	0.5041800131627981	3.002610052832577	0	0	0	-10.06084267894935	0	87.04434836561353	3.002610052832577	0	0
0.03	0.0720969290083079	0.007604103079895294	-90.42084791942315	0	0.9399999998679526	0	44.77856237666128	-11.25677517857874	0	59.67632070511944	1.041548281780398	-5.595468904692892	0	0	44.77856237666128	-11.25677517857874	0	59.67632070511944	1.041548281780398	-5.595468904692892	0	0	0.01294765991768366	-0.06876593658699587	0.5183306351264173	-0.2387089086947525	-0.05867753931809314	0.01489552397067321	0.4935315078759566	3.002155383987146	0	0	0	-10.06139702498941	0	87.04479588372264	3.002155383987146	0	0
0.04	0.07557617138553817	-0.05357097292215834	-90.36618932327143	0	0.9399999998679526	0	44.78372818719318	-11.16631969006004	0	59.68229588962576	1.041652568423448	-5.542277471346578	0	0	44.78372818719318	-11.16631969006004	0	59.68229588962576	1.041652568423448	-5.542277471346578	0	0	-0.113813107758355	-0.07832294136771367	0.485334783132117	-0.173309720615963	-0.0396763963175251	0.01985334607394881	0.5069411606704519	2.952620548099357	0	0	0	-10.12196303420778	0	87.09355178111031	2.952620548099357	0	0
0.05	0.03235745052158585	-0.05622908990231443	-90.0185206854834	0	0.9399999998679526	0	44.78377406967176	-11.16547092039572	0	59.68234962688215	1.041653506315503	-5.54176492139	0	0	44.78377406967176	-11.16547092039572	0	59.68234962688215	1.041653506315503	-5.54176492139	0	0	-0.1110812343957219	-0.03228364175192575	0.144812799074524	-0.1757841509880099	-0.07175457062319579	0.02125009421246444	0.4935305669223571	2.952181710939286	0	0	0	-10.12249972558621	0	87.09398371707981	2.952181710939286	0	0
0.06	0.05380654456348073	-0.05321040596078803	-90.25384992333744	0	0.9399999998679526	0	44.78383314199235	-11.16436827129835	0	59.68241829745029	1.041654704843016	-5.541097981719906	0	0	44.78383314199235	-11.16436827129835	0	59.68241829745029	1.041654704843016	-5.541097981719906	0	0	-0.1803104124355893	-0.05689998531104094	0.368220987409806	-0.1040366369835053	-0.06925926230144562	0.03269468762955848	0.4932226104863026	2.951618318976588	0	0	0	-10.12318708667146	0	87.09453824882037	2.951618318976588	0	0
0.07000000000000001	0.03580872763341519	-0.0565737665895068	-90.20444835781774	0	0.9399999998679526	0	44.7892914371173	-11.07481763975131	0	59.6887725954749	1.041765608265198	-5.489682355831795	0	0	44.7892914371173	-11.07481763975131	0	59.6887725954749	1.041765608265198	-5.489682355831795	0	0	-0.1197001349883193	-0.03837183158310626	0.3211263908115176	-0.2323983668897569	-0.08400883985461399	0.01356728907137048	0.613491986251992	2.898811462750644	0	0	0	-10.18811058278105	0	87.14651481084501	2.898811462750644	0	0
0.08	0.06398767085156391	-0.1785995747563559	-90.42498906711988	0	0.9399999998679526	0	44.78932764518495	-11.07418869065463	0	59.68881547407747	1.041766356637992	-5.489310676274301	0	0	44.78932764518495	-11.07418869065463	0	59.68881547407747	1.041766356637992	-5.489310676274301	0	0	-0.2212270969149271	-0.05958255474650923	0.5239368683155908	-0.2004938441206655	-0.08686282125550139	0.02497101408609744	0.4983833284042519	2.898461745782161	0	0	0	-10.18854108995485	0	87.14685902882144	2.898461745782161	0	0
